<?xml version="1.0" standalone="no"?>
<!DOCTYPE svg PUBLIC "-//W3C//DTD SVG 20010904//EN"
 "http://www.w3.org/TR/2001/REC-SVG-20010904/DTD/svg10.dtd">
<svg version="1.0" xmlns="http://www.w3.org/2000/svg"
 width="1280.000000pt" height="960.000000pt" viewBox="0 0 1280.000000 960.000000"
 preserveAspectRatio="xMidYMid meet">

<g transform="translate(0.000000,960.000000) scale(0.100000,-0.100000)"
fill="#000000" stroke="none">
<path d="M9632 8220 c-9 -38 -9 -40 13 -40 19 0 23 6 27 40 3 32 0 40 -13 40
-11 0 -20 -14 -27 -40z"/>
<path d="M10213 8193 c19 -39 20 -47 7 -52 -8 -3 41 -10 110 -17 69 -6 127
-10 129 -7 3 2 -3 19 -12 38 -21 45 -21 55 1 56 21 2 -180 27 -225 28 l-33 1
23 -47z"/>
<path d="M10518 8203 c7 -3 16 -2 19 1 4 3 -2 6 -13 5 -11 0 -14 -3 -6 -6z"/>
<path d="M10598 8193 c7 -3 16 -2 19 1 4 3 -2 6 -13 5 -11 0 -14 -3 -6 -6z"/>
<path d="M10658 8183 c6 -2 18 -2 25 0 6 3 1 5 -13 5 -14 0 -19 -2 -12 -5z"/>
<path d="M10718 8173 c6 -2 18 -2 25 0 6 3 1 5 -13 5 -14 0 -19 -2 -12 -5z"/>
<path d="M10809 8154 c54 -15 86 -41 97 -80 5 -18 22 -23 136 -42 72 -13 133
-21 134 -19 6 5 -75 61 -122 85 -23 12 -91 33 -152 47 -118 27 -183 33 -93 9z"/>
<path d="M6188 8150 c-201 -9 -244 -14 -422 -46 -190 -35 -271 -63 -412 -144
-85 -49 -132 -70 -156 -70 -49 0 -279 -119 -423 -219 -251 -174 -689 -532
-1053 -858 -57 -51 -101 -83 -115 -83 -44 0 -206 -62 -258 -98 -62 -44 -89
-97 -60 -119 14 -11 14 -13 -4 -18 -14 -4 -21 -16 -22 -36 -2 -24 1 -30 12
-25 33 12 12 -5 -37 -31 l-53 -28 270 -8 c149 -4 281 -9 295 -11 14 -3 33 -5
43 -5 9 -1 17 -5 17 -10 0 -5 -12 -8 -27 -6 -16 2 -113 7 -218 10 -315 12
-402 -4 -860 -159 -386 -130 -507 -174 -675 -246 -220 -94 -496 -234 -504
-257 -5 -12 24 -3 106 32 20 8 21 1 8 -30 -8 -19 -9 -19 -9 -1 -1 18 -2 18
-19 3 -10 -10 -24 -17 -31 -17 -7 0 -9 -5 -6 -10 3 -6 -5 -14 -18 -19 -14 -6
-31 -19 -39 -30 -8 -12 -18 -18 -21 -14 -10 10 -57 -18 -50 -30 4 -6 -4 -7
-21 -3 -20 5 -26 3 -26 -9 0 -12 -4 -14 -19 -5 -16 8 -21 6 -27 -13 l-8 -22
-7 25 c-4 16 -7 19 -8 8 -1 -20 -21 -25 -21 -5 -1 7 -5 6 -13 -5 -9 -11 -18
-14 -27 -8 -7 4 -23 5 -34 1 -12 -5 -27 -6 -33 -4 -7 3 -13 1 -13 -5 0 -5 -19
-9 -42 -10 -24 0 -60 -8 -81 -16 -43 -19 -46 -15 -14 15 28 28 6 16 -58 -32
-103 -75 -206 -203 -188 -232 4 -6 26 -13 48 -13 99 -4 226 -17 220 -22 -3 -4
-37 -5 -74 -3 -54 2 -69 0 -74 -13 -3 -8 -1 -18 5 -22 7 -4 8 -3 4 4 -10 17 5
15 25 -4 17 -15 20 -15 43 0 35 22 43 20 20 -6 l-19 -23 26 23 c14 12 28 20
31 17 3 -3 18 1 34 10 35 18 283 21 414 4 47 -6 94 -12 105 -13 12 -1 25 -5
31 -8 5 -4 25 -5 44 -2 67 7 374 3 384 -5 15 -11 109 -22 226 -27 52 -1 115
-5 140 -8 25 -3 79 -8 120 -11 41 -3 93 -8 115 -12 22 -3 54 -7 70 -8 17 -1
42 -7 56 -13 15 -6 30 -8 33 -5 3 4 6 2 6 -4 0 -6 17 -11 38 -10 44 1 59 -1
222 -19 200 -22 520 -36 570 -26 25 6 52 10 60 11 8 0 65 3 125 5 61 3 142 8
180 12 78 7 134 7 215 -2 124 -13 151 -11 315 21 17 3 37 8 45 12 56 23 222
53 299 54 70 1 127 -13 142 -34 3 -5 58 5 121 22 63 17 121 31 129 30 8 0 -56
-20 -141 -44 -189 -53 -309 -101 -415 -165 -77 -47 -86 -50 -272 -84 -106 -20
-222 -38 -258 -42 l-65 -7 0 45 c0 57 -27 94 -78 108 -53 14 -487 39 -1357 80
-236 11 -464 22 -505 25 -41 3 -280 12 -530 21 -250 8 -527 19 -615 25 -203
12 -193 12 -227 -2 -33 -13 -68 -73 -68 -115 0 -22 -2 -25 -15 -14 -19 16 -19
47 1 135 8 39 17 82 19 97 2 15 20 62 40 104 19 42 33 79 31 82 -11 10 -59
-53 -88 -114 -29 -63 -43 -123 -54 -251 -4 -35 -10 -60 -15 -57 -12 7 -11 61
1 104 10 35 5 70 -9 70 -34 0 -39 -157 -6 -219 20 -40 19 -48 -4 -27 -16 14
-19 15 -24 2 -3 -8 3 -22 14 -32 14 -13 16 -20 8 -31 -6 -7 -17 -13 -23 -13
-6 0 -3 7 6 14 10 7 15 16 11 19 -10 10 -41 8 -48 -2 -7 -12 15 -61 28 -61 6
0 7 -3 4 -6 -10 -10 12 -44 28 -44 8 0 17 -10 19 -22 30 -156 31 -207 4 -193
-7 4 -3 -3 10 -14 16 -13 22 -29 20 -46 -3 -25 -5 -24 -108 45 -117 79 -173
129 -199 178 l-17 33 -29 -33 c-17 -18 -23 -27 -13 -20 22 17 31 1 18 -33 -11
-28 -4 -71 14 -94 8 -11 8 -13 -1 -7 -9 5 -11 2 -7 -8 3 -9 12 -12 21 -9 12 5
14 3 8 -7 -6 -10 -4 -12 8 -7 10 3 17 2 17 -3 0 -5 10 -14 21 -21 15 -8 19 -8
15 0 -4 6 -1 14 7 16 19 8 117 -37 117 -54 0 -11 -4 -11 -22 1 -13 8 -39 18
-58 21 l-35 6 35 -16 c19 -9 49 -23 65 -31 36 -16 78 -26 136 -31 11 -1 16
-13 17 -43 2 -24 12 -117 24 -208 12 -91 21 -178 20 -193 -1 -16 21 -123 48
-237 28 -115 50 -212 50 -215 0 -3 -13 -5 -30 -5 -16 0 -30 2 -30 5 0 4 -22
99 -49 213 -27 114 -52 230 -56 257 -20 156 -73 214 -263 291 -164 66 -209
117 -198 223 5 54 5 55 -9 25 -53 -116 -65 -423 -26 -642 13 -76 21 -152 18
-177 -3 -33 -1 -45 8 -45 8 0 15 -3 17 -7 7 -17 203 -116 254 -129 29 -7 31
-21 21 -114 -16 -148 -18 -161 -34 -167 -20 -8 -163 38 -260 83 -84 38 -84 37
-53 159 11 43 18 80 17 82 -2 2 -14 -31 -27 -74 -20 -68 -22 -91 -17 -192 5
-104 30 -235 56 -297 12 -27 98 -89 302 -214 l164 -101 6 -99 c4 -87 8 -103
29 -125 14 -15 40 -28 62 -31 33 -6 41 -13 69 -63 75 -132 177 -238 310 -320
l79 -48 -114 -37 c-187 -60 -266 -102 -266 -144 0 -27 65 -91 110 -108 8 -3
23 -10 32 -15 10 -5 24 -9 32 -9 7 0 19 -7 26 -15 7 -8 16 -12 21 -10 4 3 16
1 26 -4 39 -22 274 -65 493 -91 52 -6 106 -13 120 -16 14 -2 77 -9 140 -14 63
-6 124 -12 135 -15 24 -5 154 -18 175 -17 8 0 42 -4 75 -8 53 -8 210 -21 420
-35 157 -11 232 -16 270 -20 22 -2 90 -6 150 -10 61 -3 139 -8 175 -10 160
-11 238 -17 280 -20 25 -2 117 -6 205 -10 88 -3 187 -8 220 -10 33 -2 141 -6
240 -10 99 -3 205 -8 235 -10 30 -2 150 -7 265 -10 116 -3 260 -8 320 -10 61
-3 254 -7 430 -10 176 -3 354 -7 395 -10 469 -27 522 -28 875 -16 198 7 382
16 409 22 27 5 90 14 140 20 136 16 260 44 450 99 94 28 203 59 241 71 98 28
382 127 630 219 491 182 3130 1071 3269 1101 108 23 210 109 312 259 92 137
134 271 168 535 18 135 36 384 36 491 l0 70 120 153 c142 181 153 200 147 255
-2 22 4 79 14 126 45 217 47 321 8 474 -24 95 -39 254 -39 429 0 70 -2 127 -4
127 -2 0 -35 -13 -75 -29 -39 -17 -71 -28 -71 -26 0 3 -78 -23 -172 -56 -95
-34 -211 -72 -257 -86 -77 -22 -333 -147 -373 -181 -25 -21 -23 -14 27 122 98
266 97 261 102 546 5 251 -1 316 -33 405 -4 11 -4 17 0 14 4 -4 24 -3 45 2 21
5 125 22 232 39 181 28 274 47 239 49 -9 1 -16 12 -16 27 -2 29 -26 59 -62 77
-14 7 -34 30 -46 52 -11 22 -25 43 -31 47 -5 4 1 8 15 9 14 1 -13 7 -60 14
-47 6 -103 20 -124 30 -61 29 -146 115 -314 315 -204 243 -284 333 -411 464
-80 82 -95 100 -59 75 26 -19 47 -38 48 -42 0 -13 63 -72 73 -69 4 1 6 -2 3
-6 -7 -12 28 -44 37 -35 11 10 8 25 -3 18 -13 -8 -13 1 0 25 8 15 4 25 -22 49
-18 17 -36 31 -40 31 -3 0 -4 8 -1 18 2 10 -5 26 -16 36 -12 11 -21 26 -21 35
0 9 3 12 8 6 9 -12 48 -13 59 -1 4 5 2 6 -5 2 -12 -7 -11 14 3 61 4 12 -5 15
-115 32 -88 14 -16 12 120 -3 69 -8 127 -12 129 -10 2 2 -1 4 -8 4 -7 0 -10 3
-8 8 3 4 -5 8 -16 9 -12 0 -49 9 -82 18 -81 22 -88 23 -103 24 -8 1 -10 6 -6
14 5 9 4 9 -5 1 -9 -8 -24 -5 -59 13 -25 13 -52 21 -59 19 -7 -3 -13 0 -13 6
0 6 -3 9 -6 5 -4 -3 -24 3 -45 14 -27 13 -39 16 -39 7 0 -9 -3 -9 -11 -1 -7 7
-21 8 -39 3 -21 -6 -32 -4 -41 6 -9 11 -30 15 -78 13 -36 -1 -97 3 -135 10
-97 17 -92 8 7 -13 82 -17 167 -46 167 -57 0 -3 -30 4 -67 17 -38 12 -90 25
-118 29 -46 6 -49 5 -30 -9 11 -8 16 -16 11 -16 -4 0 -21 11 -38 25 -16 14
-36 25 -43 25 -8 0 -12 6 -10 13 4 8 -8 12 -37 12 -24 0 -61 4 -83 9 -22 4
-55 8 -72 7 -18 -1 -33 2 -33 6 0 10 -211 10 -227 0 -6 -4 -14 -3 -18 3 -3 5
-25 10 -48 10 -31 0 -38 -3 -27 -10 10 -7 -11 -10 -68 -10 -53 0 -81 4 -77 10
4 6 -19 10 -62 9 -56 -1 -62 -3 -33 -9 33 -7 32 -7 -15 -9 -36 0 -46 2 -35 9
11 7 3 10 -28 10 -26 0 -41 -4 -37 -10 4 -6 -9 -9 -34 -7 -22 2 -38 1 -36 -3
2 -3 -58 -14 -134 -23 -165 -21 -340 -66 -439 -113 -87 -42 -183 -129 -242
-219 -23 -35 -71 -128 -107 -207 -60 -132 -336 -816 -362 -900 -7 -20 -28 -56
-46 -80 -44 -55 -67 -124 -104 -318 -16 -85 -37 -175 -45 -199 -9 -24 -16 -45
-16 -47 0 -1 14 2 32 7 17 5 33 7 36 5 4 -5 5 -4 -151 -47 -65 -17 -120 -29
-123 -26 -7 7 -30 148 -39 235 -6 68 -5 72 14 72 12 0 21 5 21 10 0 6 6 10 13
10 23 1 120 85 144 125 12 22 37 69 53 104 17 36 45 85 61 109 44 65 95 171
108 222 21 83 109 274 184 402 31 53 57 101 57 106 0 6 6 17 13 24 6 7 22 33
35 58 13 25 34 63 47 85 13 22 31 57 40 78 10 20 20 37 25 37 4 0 15 18 25 40
10 22 23 40 28 40 6 0 8 3 4 6 -3 3 4 17 17 31 36 39 146 269 146 306 0 12 9
37 20 55 13 21 16 32 7 32 -7 1 -5 6 5 14 10 7 15 15 12 19 -3 3 -1 21 4 41
10 34 10 35 -11 25 -11 -7 -51 -40 -87 -74 -64 -60 -130 -105 -130 -88 0 5 12
26 26 48 l27 40 -34 -35 c-18 -19 -32 -38 -31 -42 1 -5 -19 -8 -45 -8 -39 0
-55 -7 -102 -41 -31 -23 -68 -53 -82 -66 l-26 -23 -119 34 c-65 18 -150 40
-189 47 -74 14 -295 16 -625 6 -102 -3 -374 -8 -605 -11 -555 -8 -943 -16
-1035 -22 -85 -5 -356 -32 -410 -40 -80 -12 -337 -65 -357 -74 -47 -20 -21 2
30 25 53 24 98 34 331 76 89 16 123 25 110 31 -12 5 -2 6 26 3 25 -2 36 -1 25
2 -12 4 22 13 85 23 181 29 529 94 525 98 -5 5 -277 -27 -335 -39 -202 -45
-310 -53 -310 -24 0 41 102 84 275 116 94 18 166 21 502 26 283 4 401 2 425
-6 36 -13 256 -4 241 9 -12 11 -653 19 -845 10z m4629 -186 c-3 -3 -12 -4 -19
-1 -8 3 -5 6 6 6 11 1 17 -2 13 -5z m-2223 -25 c-30 -12 -37 -10 -24 5 6 8 19
12 27 9 14 -6 14 -8 -3 -14z m2103 5 c-3 -3 -12 -4 -19 -1 -8 3 -5 6 6 6 11 1
17 -2 13 -5z m60 -10 c-3 -3 -12 -4 -19 -1 -8 3 -5 6 6 6 11 1 17 -2 13 -5z
m-5224 -11 c-7 -2 -19 -2 -25 0 -7 3 -2 5 12 5 14 0 19 -2 13 -5z m4045 -170
c62 -219 69 -260 49 -281 -10 -9 -17 -12 -17 -7 0 6 -13 11 -30 11 -18 1 -27
-2 -23 -9 4 -6 0 -8 -10 -4 -11 4 -17 1 -17 -7 0 -7 -7 -13 -15 -13 -11 0 -12
4 -3 14 8 11 7 12 -6 7 -21 -8 -22 9 28 -334 14 -96 30 -220 36 -275 18 -167
18 -165 51 -163 16 1 29 7 29 13 0 5 5 3 10 -5 9 -13 10 -13 10 0 0 17 38 53
59 57 8 1 17 7 21 13 5 8 13 5 27 -10 15 -15 25 -51 37 -133 10 -62 19 -122
22 -134 4 -19 -5 -23 -114 -48 -64 -15 -142 -34 -172 -42 -67 -19 -160 -24
-160 -9 -1 6 -3 28 -6 49 -6 36 -5 37 28 37 18 0 40 5 48 10 11 7 1 10 -35 10
-47 0 -52 3 -92 48 -36 42 -52 52 -122 76 -105 34 -333 68 -434 64 -42 -2 -77
0 -77 4 0 19 92 30 200 25 115 -5 359 -45 435 -71 22 -8 49 -17 60 -21 l20 -7
-20 17 c-13 11 -15 16 -5 13 8 -2 25 -24 38 -49 13 -24 21 -34 19 -23 -3 12 4
55 13 95 13 52 19 64 19 42 1 -17 6 -35 11 -38 6 -4 10 26 10 84 l0 90 -37
-13 c-35 -12 -40 -11 -84 17 -48 30 -130 46 -235 47 l-50 0 -11 93 c-10 78
-52 251 -68 277 -10 16 -43 -2 -51 -28 -4 -15 -6 -31 -5 -37 2 -5 5 -35 7 -67
3 -31 12 -80 20 -110 21 -72 30 -178 15 -178 -6 0 -11 -7 -11 -16 0 -8 -4 -13
-9 -9 -5 3 -13 -5 -17 -17 -6 -21 -7 -21 -20 -3 -13 18 -14 18 -15 -6 -1 -18
-3 -19 -6 -6 -4 15 -11 17 -36 12 -31 -6 -31 -5 -12 10 19 16 19 16 -7 11 -25
-4 -27 -3 -18 14 10 18 8 18 -17 4 -34 -17 -46 -18 -37 -1 5 9 4 9 -5 1 -10
-9 -10 -17 -2 -33 8 -14 8 -21 1 -21 -5 0 -10 5 -10 12 0 6 -8 20 -17 30 -16
18 -16 18 2 12 13 -5 16 -4 11 5 -5 7 -17 11 -27 8 -11 -3 -17 -1 -14 3 9 15
-7 41 -19 32 -18 -14 -55 -21 -62 -11 -3 5 0 9 5 9 6 0 11 7 11 15 0 9 -6 12
-17 9 -13 -4 -14 -3 -5 3 10 7 8 14 -6 31 -23 26 -42 28 -42 5 -1 -16 -2 -16
-10 -2 -7 12 7 57 54 170 81 197 102 239 124 240 19 2 37 1 105 -4 29 -3 43
-1 35 4 -7 5 -21 9 -30 9 -9 0 -19 4 -22 8 -10 17 15 81 39 100 31 25 151 57
274 74 76 11 95 17 97 31 2 15 0 16 -12 6 -12 -10 -15 -10 -12 2 2 8 -2 13 -7
12 -6 -1 -12 10 -13 24 -3 33 -12 44 -12 15 0 -17 -6 -22 -27 -21 -16 0 -22 3
-15 6 6 2 12 12 12 21 0 10 -3 13 -8 7 -10 -15 -38 -12 -34 4 2 8 0 21 -3 29
-4 11 -8 12 -20 2 -12 -10 -16 -9 -21 3 -3 9 -12 13 -21 10 -14 -5 -13 -8 3
-20 21 -15 11 -17 -17 -3 -24 13 -57 -3 -136 -67 l-58 -46 45 47 c25 26 71 63
102 83 32 20 55 39 53 43 -3 4 2 11 11 14 8 3 13 2 10 -3 -4 -5 3 -7 14 -4 31
8 34 22 8 43 -13 11 -18 19 -11 20 6 0 13 -6 16 -12 3 -10 7 -10 20 1 15 12
17 11 17 -3 0 -11 -5 -15 -12 -10 -7 4 -10 3 -5 -1 21 -23 97 -5 97 23 0 12
-5 10 -20 -6 -24 -25 -42 -29 -34 -7 4 8 10 15 15 15 5 0 9 5 9 12 0 6 -10 3
-22 -8 -12 -10 -18 -14 -15 -7 4 6 2 13 -5 15 -18 6 93 35 217 57 177 31 155
45 203 -126z m1175 125 c4 -10 8 -9 17 2 10 12 11 11 7 -8 -3 -14 -1 -20 5
-15 6 3 16 0 22 -8 6 -8 20 -19 31 -25 10 -6 21 -17 23 -25 3 -11 1 -11 -7 1
-9 13 -11 13 -11 -1 0 -36 -34 -31 -68 8 -47 54 -52 61 -52 73 0 14 27 13 33
-2z m366 -34 c8 -7 -84 -2 -114 7 -19 5 -4 6 40 2 39 -3 72 -7 74 -9z m-572
-314 c95 -156 147 -300 197 -540 13 -63 27 -124 32 -134 6 -17 4 -18 -17 -13
-72 21 -386 68 -510 78 -79 6 -147 14 -150 17 -4 4 -23 77 -44 162 -21 85 -60
231 -86 325 -26 93 -46 171 -44 173 3 4 422 18 510 17 l60 0 52 -85z m-2740
45 c173 -14 189 -17 205 -38 25 -32 54 -111 92 -257 l34 -128 -66 -136 c-76
-158 -86 -164 -147 -93 -46 53 -68 96 -205 403 -104 233 -116 264 -106 264 3
0 89 -7 193 -15z m3333 -20 c0 -11 11 -15 36 -15 25 0 33 4 28 13 -6 10 -4 10
7 0 20 -19 33 -16 19 5 -48 67 257 -268 457 -505 109 -127 235 -253 256 -253
33 -1 -23 -20 -58 -20 -22 0 -83 -7 -135 -15 -52 -8 -131 -18 -175 -21 l-80
-6 -79 129 c-44 70 -144 226 -223 346 -79 120 -143 225 -143 233 0 7 -6 14
-13 14 -15 0 -40 38 -32 50 3 5 1 18 -5 29 -8 17 -7 20 9 18 13 -1 17 -6 13
-17 -5 -13 -3 -13 11 -2 9 8 20 11 25 8 6 -3 14 0 20 7 16 19 62 20 62 2z
m-5485 -184 c-79 -198 -211 -574 -256 -729 l-33 -113 -41 0 c-234 -4 -770 -28
-990 -44 -104 -8 -206 -16 -225 -17 -30 -2 -35 0 -32 17 6 33 110 162 225 277
308 308 643 582 863 706 l111 62 208 5 c114 2 210 6 213 10 3 3 9 2 14 -3 4
-4 -22 -81 -57 -171z m1215 172 c0 -17 -34 -113 -41 -113 -4 0 -9 9 -12 19 -8
30 -51 52 -114 57 -124 12 -109 26 35 34 59 4 113 8 120 8 6 1 12 -1 12 -5z
m158 -158 c11 -71 37 -239 58 -371 47 -305 49 -297 -71 -310 -97 -11 -95 -13
-95 88 0 70 -17 195 -36 271 l-15 57 67 201 c36 110 67 199 69 197 2 -2 12
-61 23 -133z m-323 36 c25 -20 31 -64 10 -81 -19 -16 -60 -22 -99 -14 -21 5
-25 8 -15 15 8 5 10 9 4 9 -5 0 -16 -4 -24 -9 -8 -6 -24 -6 -38 0 -19 7 -23 5
-23 -9 0 -13 -2 -14 -9 -4 -4 8 -12 14 -16 14 -4 0 -12 -6 -16 -14 -5 -7 -9
-8 -10 -3 0 6 -2 17 -4 26 -2 10 4 15 19 14 11 -1 23 2 26 6 3 5 21 10 39 11
22 2 39 10 49 26 10 15 22 22 34 19 11 -3 18 0 18 9 0 16 24 9 55 -15z m-260
-56 c2 -16 -1 -23 -8 -18 -6 4 -8 0 -4 -10 6 -16 -18 -32 -28 -18 -3 5 -14 7
-25 4 -15 -4 -20 0 -21 13 0 18 -1 18 -8 0 -4 -11 -15 -20 -25 -22 -11 -2 -16
2 -12 11 3 8 1 17 -5 21 -6 3 -1 14 12 25 20 17 23 18 34 2 9 -12 14 -13 19
-4 6 9 11 9 22 0 11 -9 14 -9 14 0 0 7 5 9 10 6 6 -3 10 2 10 11 0 25 12 9 15
-21z m-353 -57 c-9 -9 -12 -1 -11 33 l1 44 11 -33 c7 -24 7 -36 -1 -44z m111
-45 c4 -3 3 -11 -2 -17 -17 -22 -60 -144 -81 -231 -34 -140 -16 -224 66 -314
34 -38 34 -39 12 -45 -13 -3 -38 -6 -56 -6 -18 0 -51 -9 -73 -21 -23 -11 -43
-19 -45 -17 -10 11 114 550 146 634 9 24 21 30 33 17z m2812 -220 c17 -41 11
-58 -11 -29 -13 19 -20 66 -9 66 3 0 12 -16 20 -37z m2105 -24 c0 -5 4 -8 8
-5 12 7 159 -260 149 -270 -2 -2 -69 -15 -148 -29 -196 -34 -199 -35 -199 -49
0 -9 58 -3 213 21 116 17 223 32 237 32 31 1 75 -28 63 -40 -5 -5 -87 -23
-183 -39 -330 -57 -614 -111 -619 -117 -6 -5 32 -1 104 14 17 3 26 2 22 -3 -5
-5 -13 -9 -17 -9 -5 0 -16 -9 -25 -20 -12 -15 -18 -17 -22 -7 -4 10 -8 10 -17
-2 -6 -9 -26 -18 -43 -20 -18 -2 -40 -9 -48 -16 -12 -10 -15 -10 -15 0 0 10
-4 9 -16 -1 -18 -15 -114 -21 -183 -12 -31 4 -39 8 -30 15 9 6 4 7 -16 2 -16
-4 -45 -7 -62 -6 -18 1 -33 -2 -33 -8 0 -5 -17 -14 -37 -19 -56 -16 -76 -11
-23 4 l45 14 -50 -6 c-27 -4 -59 -7 -70 -7 -11 -1 -28 -9 -37 -20 -10 -10 -28
-20 -40 -22 -64 -8 -258 -48 -378 -78 -74 -18 -139 -30 -145 -28 -5 3 -29 5
-53 3 -48 -3 -62 7 -62 46 0 17 8 24 35 29 19 3 47 4 61 1 14 -2 110 15 212
39 368 86 620 138 1021 210 107 19 196 35 197 37 1 1 -4 40 -11 87 -7 47 -16
121 -19 164 -6 78 -6 79 13 62 12 -11 25 -15 33 -10 10 6 10 4 -1 -9 -32 -40
31 -5 77 43 24 25 32 29 27 15 -6 -18 -5 -18 15 3 21 22 70 31 70 11z m-275
-254 c10 -47 15 -88 13 -91 -7 -7 -641 -125 -646 -120 -2 2 20 9 48 15 29 6
61 18 72 25 11 8 27 12 34 9 9 -3 14 2 14 12 0 11 5 15 16 11 8 -3 13 -2 10 3
-3 5 8 14 24 21 16 7 27 16 25 20 -3 5 9 8 26 8 22 -1 37 6 51 23 17 22 18 22
9 2 -16 -32 -13 -35 9 -13 11 11 20 24 20 30 0 6 3 9 8 8 4 0 14 2 22 5 8 3
24 7 35 10 11 2 19 9 18 15 -4 16 14 15 20 0 4 -9 6 -8 6 2 2 27 72 77 91 65
6 -3 10 -1 10 4 0 6 7 11 15 11 8 0 15 5 15 11 0 5 4 8 8 5 5 -3 17 -44 27
-91z m-2015 55 c0 -5 -4 -10 -10 -10 -5 0 -10 5 -10 10 0 6 5 10 10 10 6 0 10
-4 10 -10z m650 -20 c0 -5 -7 -10 -15 -10 -8 0 -15 5 -15 10 0 6 7 10 15 10 8
0 15 -4 15 -10z m647 -62 c-3 -8 -6 -5 -6 6 -1 11 2 17 5 13 3 -3 4 -12 1 -19z
m-1224 5 c-7 -2 -19 -2 -25 0 -7 3 -2 5 12 5 14 0 19 -2 13 -5z m1278 -191 c5
-2 2 -11 -7 -19 -8 -8 -16 -14 -18 -12 -5 6 -26 157 -25 182 0 12 10 -16 21
-63 11 -47 24 -86 29 -88z m1459 142 c-41 -8 -82 -11 -90 -7 -16 8 58 20 125
20 28 1 18 -3 -35 -13z m-1622 -199 c-2 -1 -18 -5 -36 -8 -30 -6 -32 -5 -18 9
9 8 17 25 17 37 1 12 2 27 4 32 1 6 3 26 5 45 2 28 5 21 17 -39 8 -40 13 -74
11 -76z m-1308 -8 c96 -36 145 -76 121 -100 -6 -6 -11 -16 -11 -23 0 -14 51
-34 86 -34 18 0 22 -5 19 -25 -2 -19 2 -25 18 -25 11 0 18 -3 14 -6 -3 -4 -90
-12 -193 -20 -135 -9 -192 -10 -201 -2 -9 7 -13 38 -13 100 0 88 1 90 32 119
36 32 71 37 128 16z m640 -27 c0 -5 -2 -10 -4 -10 -3 0 -8 5 -11 10 -3 6 -1
10 4 10 6 0 11 -4 11 -10z m2404 -17 c3 -10 8 -34 11 -53 6 -33 4 -36 -19 -38
-17 -1 -26 3 -26 13 0 7 -5 17 -12 21 -8 5 -9 2 -5 -10 5 -14 1 -16 -27 -13
-26 3 -33 1 -29 -9 5 -13 17 -18 36 -15 11 2 8 -17 -3 -21 -7 -2 -6 -16 2 -41
l14 -38 22 21 c24 23 28 19 12 -10 -8 -16 -8 -18 5 -14 8 4 15 12 15 20 0 8 5
14 11 14 8 0 8 5 -1 15 -9 10 -9 15 -1 15 6 0 12 10 13 23 3 49 16 -126 17
-238 1 -124 -5 -169 -20 -159 -5 3 -9 0 -9 -5 0 -6 5 -11 10 -11 19 0 10 -125
-15 -214 -36 -122 -113 -328 -132 -348 -25 -28 -154 -98 -190 -102 -46 -6 -86
28 -85 73 1 39 36 146 112 346 91 237 91 236 -27 216 -170 -28 -990 -195
-1065 -217 -16 -5 -18 2 -18 49 0 79 -29 341 -45 411 -8 33 -13 61 -12 62 5 3
351 67 542 99 266 45 491 87 720 135 99 21 183 39 187 39 4 1 9 -7 12 -16z
m-2407 -65 c-3 -8 -6 -5 -6 6 -1 11 2 17 5 13 3 -3 4 -12 1 -19z m-1452 -18
c3 -5 -13 -21 -35 -36 -36 -24 -43 -26 -68 -15 l-27 13 45 24 c49 25 75 30 85
14z m-2745 -10 c404 -6 750 -13 768 -16 43 -7 41 -22 -3 -21 -21 1 -30 4 -22
9 9 6 9 8 0 8 -6 0 -14 -4 -18 -9 -3 -6 -101 -10 -225 -11 -257 -1 -259 -1
-658 -124 -37 -12 -42 -12 -38 0 7 19 -21 16 -114 -11 -20 -6 -130 -35 -157
-42 -13 -3 -23 -9 -23 -12 0 -4 -6 -8 -12 -8 -16 -1 -71 -15 -163 -43 -38 -12
-83 -23 -99 -25 -15 -2 -34 -9 -40 -15 -7 -5 -16 -7 -19 -4 -3 3 -12 2 -19 -2
-7 -5 -22 -10 -33 -11 -11 -2 -27 -6 -35 -10 -24 -10 -43 -14 -72 -15 -16 -1
-25 -6 -21 -12 3 -6 0 -5 -7 1 -8 7 -18 9 -24 4 -6 -4 -26 -11 -44 -14 -24 -5
-34 -3 -38 8 -4 8 -15 15 -26 15 -10 0 -16 4 -13 10 3 6 -1 7 -9 4 -9 -3 -13
-11 -9 -17 3 -6 1 -7 -5 -3 -9 5 -9 13 0 29 10 20 10 21 -5 8 -14 -11 -20 -11
-32 -1 -12 10 -16 9 -21 -4 -7 -17 -34 -22 -34 -6 0 6 6 10 14 10 17 0 29 27
16 35 -6 4 -10 -1 -10 -11 0 -15 -2 -15 -25 0 -14 9 -25 12 -25 6 0 -7 -6 -7
-20 0 -11 6 -25 8 -31 5 -5 -4 -16 -1 -24 5 -8 7 -22 10 -30 6 -9 -3 -15 0
-15 9 0 9 -6 12 -17 8 -11 -4 -14 -3 -9 5 4 7 0 19 -8 27 -13 14 -16 13 -26
-2 -10 -16 -11 -16 -6 -1 3 11 -2 19 -14 23 -24 8 -43 -2 -34 -17 5 -7 2 -8
-7 -2 -8 4 -25 9 -39 10 -39 2 -42 3 -35 14 4 6 11 7 17 4 7 -4 8 -2 4 4 -4 7
-2 12 5 12 7 0 10 3 6 6 -3 3 -12 2 -19 -2 -7 -5 -18 -9 -24 -10 -19 -3 -274
-90 -400 -138 -257 -95 -584 -235 -763 -325 -34 -18 -65 -30 -67 -28 -7 7 109
78 201 125 173 86 533 233 795 324 63 21 124 43 135 48 11 5 36 12 55 16 19 3
81 22 138 40 109 36 127 40 118 25 -8 -12 77 14 131 40 43 21 61 56 24 46 -10
-2 -24 -1 -30 3 -7 4 8 7 33 8 24 1 55 6 68 11 31 13 310 13 1188 1z m850 -18
c0 -9 43 -11 50 -1 3 3 14 3 25 -2 l20 -8 -20 -2 c-11 -1 -31 -3 -45 -5 -35
-4 -72 5 -65 16 7 12 35 13 35 2z m173 -9 c-7 -2 -19 -2 -25 0 -7 3 -2 5 12 5
14 0 19 -2 13 -5z m87 -3 c0 -5 -5 -10 -11 -10 -5 0 -7 5 -4 10 3 6 8 10 11
10 2 0 4 -4 4 -10z m1504 -16 c10 -6 15 -14 10 -16 -5 -3 -135 -45 -289 -92
-154 -48 -374 -118 -490 -156 -713 -234 -958 -311 -971 -306 -9 3 -12 1 -9 -4
3 -6 2 -10 -3 -10 -10 0 -23 23 -28 50 -2 10 2 9 12 -4 8 -11 14 -15 14 -9 0
7 -4 15 -10 18 -15 9 -12 41 5 55 8 7 12 17 8 23 -3 5 -1 7 4 4 15 -9 74 59
67 77 -3 8 -1 17 5 21 6 3 11 19 11 35 0 20 6 31 21 35 11 4 19 9 16 11 -10
10 -39 -11 -50 -35 -10 -25 -11 -25 -14 -4 -4 21 -5 21 -56 6 -162 -47 -460
-147 -767 -258 -354 -127 -466 -162 -455 -145 6 10 240 103 340 136 39 12 156
52 260 89 493 173 835 287 899 301 107 24 280 74 291 85 7 7 4 8 -7 4 -10 -4
-18 -3 -18 3 0 6 -6 12 -12 15 -7 2 -2 2 10 0 14 -2 21 0 18 6 -6 9 8 14 73
26 13 2 26 7 30 11 8 8 -29 34 -48 34 -14 0 -14 -2 -1 -11 12 -8 11 -9 -6 -4
-12 3 -38 6 -58 7 -20 1 -36 5 -36 10 0 14 1210 6 1234 -8z m-4338 -25 c-43
-6 -80 -6 -95 0 -19 7 -1 9 69 9 l95 -1 -69 -8z m349 -3 c11 -2 -10 -4 -47 -5
-38 0 -68 2 -68 7 0 7 67 6 115 -2z m-552 -3 c-7 -2 -19 -2 -25 0 -7 3 -2 5
12 5 14 0 19 -2 13 -5z m375 0 c-16 -2 -40 -2 -55 0 -16 2 -3 4 27 4 30 0 43
-2 28 -4z m-511 -19 c-3 -3 -12 -4 -19 -1 -8 3 -5 6 6 6 11 1 17 -2 13 -5z
m-52 -14 c-11 -4 -33 -14 -50 -21 l-30 -13 40 -6 c38 -7 37 -7 -17 -9 -32 0
-58 3 -58 8 0 10 96 50 120 50 9 0 8 -3 -5 -9z m2145 -75 c-7 -8 -20 -15 -28
-15 -13 0 -12 3 4 15 25 19 40 19 24 0z m55 5 c-3 -5 -12 -10 -18 -10 -7 0 -6
4 3 10 19 12 23 12 15 0z m5044 -27 c21 -81 67 -470 57 -481 -3 -2 -101 -26
-218 -53 -337 -78 -1069 -262 -1353 -340 -143 -39 -270 -74 -282 -77 -22 -4
-23 -1 -23 59 -1 35 -9 110 -18 167 -15 86 -16 100 -3 88 12 -13 19 -12 52 5
21 10 44 19 51 19 7 0 33 10 58 22 25 12 54 23 65 24 11 1 40 10 65 19 25 9
59 18 75 21 17 4 33 10 36 16 4 5 18 11 33 11 14 1 26 5 26 10 0 4 9 7 19 7
11 0 23 5 26 10 4 6 11 8 16 5 5 -4 9 -2 9 3 0 6 11 13 25 16 14 4 25 12 25
19 0 8 4 7 10 -3 8 -12 13 -11 33 8 13 13 37 25 53 28 16 3 34 11 40 19 6 8
19 15 28 15 9 0 16 5 16 11 0 6 6 9 14 6 8 -3 24 4 36 15 19 18 36 25 66 27 7
1 14 11 18 24 5 17 8 19 15 8 7 -11 11 -9 20 8 7 12 17 19 23 15 7 -5 9 -2 6
8 -4 8 -2 21 4 29 8 11 9 10 4 -3 -3 -10 -1 -18 4 -18 6 0 10 14 10 30 0 17 5
30 13 30 9 0 8 3 -2 9 -7 5 -9 11 -4 14 18 12 784 183 830 186 7 1 17 -16 22
-36z m-7519 5 c-25 -11 -49 -21 -55 -22 -5 -2 -17 -6 -25 -9 -38 -16 -106 -37
-119 -37 -8 0 -23 -8 -34 -17 -15 -13 -18 -14 -12 -3 8 13 7 13 -8 1 -10 -8
-20 -11 -24 -7 -3 3 -14 -1 -23 -9 -9 -8 -25 -16 -37 -18 -12 -1 -29 -9 -38
-17 -9 -7 -31 -14 -48 -13 -18 0 -34 -3 -37 -7 -3 -4 -21 -11 -40 -15 -19 -4
-33 -5 -30 -2 18 19 522 193 565 195 6 0 -10 -9 -35 -20z m2370 8 c0 -2 -7 -7
-16 -10 -8 -3 -12 -2 -9 4 6 10 25 14 25 6z m3590 -76 c-20 -13 -63 -13 -55 0
3 6 21 10 38 10 24 0 28 -3 17 -10z m-865 -219 c5 -17 2 -21 -17 -21 -18 0
-20 2 -8 10 12 8 11 10 -7 10 -12 0 -25 5 -28 10 -4 6 -10 8 -15 5 -4 -3 -10
2 -14 10 -3 8 -12 15 -21 15 -8 0 -14 3 -14 8 3 19 -2 32 -14 32 -8 0 -14 12
-14 30 0 16 6 31 14 34 7 3 13 12 13 20 0 16 61 33 79 22 5 -4 13 -1 18 6 5 8
11 -25 14 -78 4 -50 10 -101 14 -113z m-4035 185 c0 -2 -7 -7 -16 -10 -8 -3
-12 -2 -9 4 6 10 25 14 25 6z m5587 -78 c2 -18 0 -20 -7 -8 -12 18 -13 30 -2
30 4 0 9 -10 9 -22z m-7192 -8 c-3 -5 -12 -10 -18 -10 -7 0 -6 4 3 10 19 12
23 12 15 0z m5580 -100 c3 -5 -1 -10 -10 -10 -9 0 -13 5 -10 10 3 6 8 10 10
10 2 0 7 -4 10 -10z m-6036 -94 c-2 -2 -15 -9 -29 -15 -24 -11 -24 -11 -6 3
16 13 49 24 35 12z m-79 -36 c0 -5 -5 -10 -11 -10 -5 0 -7 5 -4 10 3 6 8 10
11 10 2 0 4 -4 4 -10z m10712 -222 c-34 -46 -83 -103 -109 -128 l-48 -45 41
45 c22 25 69 84 105 131 35 48 66 85 68 83 1 -1 -24 -40 -57 -86z m-3968 -112
c9 -43 19 -109 22 -146 l7 -68 -59 -16 c-754 -213 -1209 -376 -1400 -503 -48
-32 -56 -34 -72 -22 -19 14 -237 189 -302 242 l-35 29 35 -24 c19 -14 59 -42
89 -63 42 -31 57 -36 70 -28 9 6 15 16 13 23 -1 6 3 10 10 9 27 -3 39 1 32 13
-5 7 -2 9 7 6 18 -7 44 18 26 25 -7 3 -4 6 6 6 9 1 17 4 17 9 0 4 14 15 31 24
16 10 27 13 23 7 -3 -6 3 -5 15 3 12 7 21 16 21 19 0 3 17 4 37 2 20 -2 43 -1
52 3 26 11 34 14 69 20 17 4 32 10 32 15 0 4 10 13 21 20 15 7 19 8 15 0 -9
-14 26 -1 36 13 4 6 13 11 20 11 12 1 25 6 98 39 14 6 28 15 32 21 4 5 8 6 8
1 0 -5 7 -3 15 4 8 7 15 9 15 6 0 -4 12 1 28 11 45 31 80 46 90 39 5 -3 12 0
15 7 2 7 31 23 63 36 33 14 62 29 66 34 3 6 17 12 29 14 13 2 28 8 33 13 6 6
16 10 24 10 7 0 20 7 28 15 9 8 24 15 34 15 10 0 21 7 24 16 4 10 12 14 22 10
9 -4 22 -3 28 2 6 5 36 18 66 30 30 12 69 27 85 33 17 7 32 13 35 13 3 1 24 8
45 18 54 22 78 31 90 32 38 4 155 42 155 50 1 27 19 -26 34 -98z m-1785 70
c-8 -8 -202 -76 -206 -72 -2 2 40 19 94 39 93 34 122 42 112 33z m-4179 -81
c0 -20 -50 -44 -100 -47 -55 -4 -62 15 -18 42 40 24 118 28 118 5z m3913 -20
c-57 -26 -101 -41 -92 -31 8 8 122 55 134 55 6 0 -13 -11 -42 -24z m-3908 -21
c-24 -18 -109 -44 -146 -44 -14 0 -32 6 -38 14 -9 11 -3 12 36 9 31 -2 66 4
98 16 63 23 76 25 50 5z m3785 -29 c-14 -8 -29 -14 -35 -14 -5 0 1 6 15 14 14
8 30 14 35 14 6 0 -1 -6 -15 -14z m-270 -55 c-172 -8 -268 -20 -444 -56 -128
-26 -132 -26 -124 -19 7 8 191 44 323 65 77 12 170 18 260 17 l140 0 -155 -7z
m217 -6 c-3 -3 -12 -4 -19 -1 -8 3 -5 6 6 6 11 1 17 -2 13 -5z m80 -78 c44
-15 91 -34 103 -44 21 -17 22 -21 10 -58 -7 -21 -21 -54 -32 -73 -10 -18 -17
-36 -14 -38 3 -3 17 18 31 47 14 29 29 50 31 47 11 -11 -114 -217 -132 -217
-3 0 4 14 16 31 12 16 20 32 18 34 -3 3 -33 -31 -68 -75 -107 -137 -218 -229
-366 -303 -145 -73 -408 -123 -1324 -251 -136 -19 -246 -30 -248 -25 -2 5 -13
9 -25 9 l-21 0 22 20 c23 21 30 36 12 25 -6 -3 -7 1 -4 9 3 9 11 13 17 9 6 -4
8 0 4 11 -4 10 -3 15 3 11 5 -3 19 13 30 36 26 50 36 46 15 -5 -9 -21 -14 -43
-12 -49 4 -12 46 60 58 99 24 80 237 365 239 319 0 -16 8 -11 45 25 28 27 45
38 45 29 0 -14 18 -37 55 -67 36 -31 58 13 35 72 -7 20 -16 26 -40 26 -27 0
-30 3 -25 20 7 23 -13 28 -33 8 -7 -7 -12 -8 -12 -2 0 5 22 23 48 41 40 27 67
35 182 53 606 96 847 150 1045 235 51 22 71 25 135 21 41 -2 112 -16 157 -30z
m-884 -3 c-7 -2 -19 -2 -25 0 -7 3 -2 5 12 5 14 0 19 -2 13 -5z m-46 -9 c-3
-3 -12 -4 -19 -1 -8 3 -5 6 6 6 11 1 17 -2 13 -5z m6051 -67 c15 0 15 -10 0
-25 -9 -9 -7 -12 10 -12 16 0 20 4 15 18 -6 15 -5 15 10 3 9 -7 25 -11 36 -8
41 10 41 -7 -3 -133 -24 -69 -51 -159 -60 -200 -9 -42 -20 -80 -24 -87 -4 -6
-43 -22 -87 -36 -44 -13 -267 -84 -495 -156 -228 -72 -423 -134 -432 -137 -14
-4 -18 0 -18 18 0 13 -9 57 -20 98 -25 97 -26 166 -2 179 62 33 476 165 687
220 68 18 215 120 215 150 0 5 7 11 15 15 8 3 20 16 26 30 6 13 22 27 35 30
13 4 24 13 24 21 0 9 6 12 17 8 12 -5 14 -3 8 7 -6 10 -4 12 11 6 10 -5 25 -9
32 -9z m-4892 -128 c3 -6 -5 -3 -20 6 -14 10 -26 19 -26 22 0 7 39 -17 46 -28z
m-5759 -96 c-2 -16 -4 -5 -4 22 0 28 2 40 4 28 2 -13 2 -35 0 -50z m5824 50
c13 -16 12 -17 -3 -4 -10 7 -18 15 -18 17 0 8 8 3 21 -13z m-5411 -49 c229
-21 659 -54 708 -54 28 0 45 -5 48 -15 5 -12 12 -10 37 9 59 44 100 59 157 59
66 -1 113 -19 164 -63 58 -52 129 -210 94 -210 -11 0 -11 -2 0 -9 7 -4 16 -33
19 -63 6 -57 -6 -91 -62 -183 -13 -22 -22 -41 -20 -43 9 -9 -101 -112 -145
-136 -107 -58 -206 -41 -290 50 -45 49 -65 88 -80 162 l-11 48 -322 43 c-177
23 -392 55 -477 70 -143 24 -155 28 -158 49 -4 29 -4 29 300 -14 261 -36 651
-85 654 -81 1 1 9 31 18 67 9 36 30 91 46 124 16 32 27 62 24 67 -3 5 -26 9
-52 9 -70 0 -474 36 -747 66 -239 26 -265 33 -265 67 0 10 109 5 360 -19z
m-376 -349 c10 -60 24 -136 32 -169 20 -77 12 -81 -15 -9 -24 68 -51 283 -49
398 l1 80 7 -95 c4 -52 15 -144 24 -205z m3822 256 c-10 -11 -19 -26 -20 -35
-2 -15 -94 -146 -103 -146 -2 0 -1 5 3 12 5 7 3 8 -5 4 -7 -5 -10 -15 -7 -23
3 -8 2 -12 -3 -9 -5 3 -31 -30 -57 -74 -48 -79 -80 -111 -48 -47 52 101 228
337 252 337 3 0 -3 -9 -12 -19z m-1636 -11 c179 -5 483 -12 675 -16 193 -4
372 -10 399 -13 l48 -6 -18 -22 -19 -21 -505 8 c-278 5 -649 14 -825 20 -313
10 -320 11 -337 33 -10 12 -18 26 -18 31 0 4 62 5 138 2 75 -4 283 -11 462
-16z m1348 7 c-16 -6 -27 -16 -27 -21 3 -24 -2 -34 -31 -64 -17 -19 -30 -43
-30 -57 0 -15 -4 -24 -8 -21 -4 3 -16 -11 -27 -30 -10 -19 -21 -34 -25 -34
-14 0 -159 -148 -152 -155 4 -5 2 -5 -4 -2 -6 4 -33 -14 -60 -38 -27 -25 -55
-45 -62 -45 -9 0 -12 -6 -8 -16 4 -12 2 -15 -9 -10 -8 3 -15 2 -15 -2 0 -4
-12 -20 -26 -37 -33 -39 -29 -32 139 259 79 137 150 253 158 257 8 4 55 12
104 17 117 12 114 12 83 -1z m2502 -78 c112 -84 110 -78 44 -141 -105 -99
-224 -259 -339 -458 -72 -123 -92 -138 -237 -174 -148 -38 -255 -45 -1353 -86
-579 -22 -917 -46 -1006 -70 -41 -12 -51 -30 -169 -315 -68 -164 -77 -176
-109 -156 -16 10 -10 28 93 275 36 88 66 173 66 189 0 43 54 198 90 256 19 30
58 71 98 101 67 50 221 135 230 126 13 -13 -14 -38 -95 -86 -119 -72 -145
-103 -115 -140 l18 -23 58 22 c41 15 163 35 415 67 196 25 454 58 574 74 252
34 251 34 240 18 -4 -7 -6 -25 -4 -40 1 -14 -2 -29 -8 -33 -6 -3 -9 0 -5 8 2
7 -1 14 -9 14 -16 0 -20 -34 -4 -44 7 -4 25 -8 41 -9 16 -2 32 -7 35 -12 11
-16 38 -21 51 -9 10 9 11 9 6 0 -5 -9 14 -11 76 -8 46 2 83 4 83 5 0 1 101 9
185 14 25 1 44 7 43 12 -1 6 10 10 25 10 35 0 155 40 212 71 25 14 64 40 87
59 23 19 44 34 47 34 3 0 21 15 40 33 19 17 48 44 66 60 18 15 29 27 25 27
-14 0 255 256 294 280 22 14 43 33 47 43 3 10 8 16 11 13 3 -3 16 5 27 17 12
13 28 21 36 19 13 -5 13 -3 0 13 -21 26 -4 16 90 -56z m5196 5 c77 -37 148
-157 189 -320 l25 -95 -25 -27 c-14 -15 -24 -31 -22 -36 6 -17 24 -17 39 -2
14 13 16 6 22 -57 l7 -72 -48 -43 c-49 -45 -43 -47 13 -6 l32 23 6 -52 c14
-114 -34 -507 -62 -507 -4 0 -17 26 -30 58 -12 32 -29 67 -38 78 -8 10 -13 13
-9 7 3 -7 2 -20 -3 -29 -7 -13 -20 5 -60 82 -28 55 -58 108 -66 119 -15 20
-15 20 -16 -1 0 -11 19 -65 42 -120 51 -123 59 -156 42 -172 -11 -10 -16 -1
-29 45 -25 96 -68 224 -76 229 -4 2 -2 17 6 32 8 15 17 39 20 55 3 15 10 27
15 27 6 0 5 -8 -2 -20 -10 -15 -10 -22 0 -32 9 -9 12 -7 12 10 0 12 4 22 8 22
5 0 7 -13 4 -29 -5 -36 18 -84 67 -138 37 -41 39 -42 45 -20 3 12 8 72 11 132
3 61 8 122 10 136 4 25 3 26 -34 19 -21 -4 -59 -18 -85 -33 l-46 -26 0 31 c0
23 4 29 16 24 9 -3 34 7 58 24 50 34 136 126 136 145 0 7 6 16 13 18 6 3 -2 6
-18 6 -25 1 -42 -10 -86 -56 -31 -32 -62 -73 -69 -91 -15 -40 -36 -56 -27 -21
6 22 5 23 -8 5 -18 -24 -39 -12 -23 13 14 24 4 53 -17 45 -8 -3 -15 -13 -15
-20 0 -8 -9 -24 -20 -36 -10 -11 -22 -41 -26 -64 -6 -43 -7 -44 -43 -44 -20 0
-45 -7 -55 -15 -15 -11 -37 -13 -93 -8 l-73 6 0 -84 c0 -147 47 -386 75 -383
6 1 32 41 58 89 41 75 47 92 38 114 -5 14 -12 55 -15 91 -6 62 -5 66 20 84 19
13 29 15 37 7 19 -19 37 -12 37 14 0 14 5 25 10 25 6 0 10 -11 10 -25 0 -15 5
-24 13 -22 8 1 11 -12 9 -47 -2 -43 -1 -48 13 -36 21 18 19 7 -5 -20 -17 -19
-20 -38 -20 -114 -1 -50 -7 -118 -14 -151 -14 -58 -14 -59 -16 -20 -2 40 -2
40 -11 10 -44 -150 -56 -203 -43 -198 8 3 11 10 7 16 -4 6 -1 7 6 3 7 -5 10
-14 7 -21 -4 -10 1 -10 22 1 24 12 29 11 50 -9 20 -18 24 -19 32 -7 18 28 11
40 -22 41 -30 1 -31 2 -8 8 39 9 70 34 70 54 0 10 3 17 8 15 21 -9 91 -64 92
-71 1 -39 -113 -127 -164 -127 -117 0 -224 156 -278 405 -29 133 -36 461 -14
613 39 263 128 465 234 533 52 33 97 37 148 13z m-9288 -31 c-10 -2 -28 -2
-40 0 -13 2 -5 4 17 4 22 1 32 -1 23 -4z m70 0 c-10 -2 -26 -2 -35 0 -10 3 -2
5 17 5 19 0 27 -2 18 -5z m5525 -3 c-13 -5 -23 -14 -23 -19 0 -9 -36 -21 -79
-27 -13 -2 -27 -8 -31 -15 -6 -8 -9 -8 -14 0 -4 6 -12 9 -17 6 -5 -4 -9 -1 -9
4 0 6 6 11 13 11 6 0 35 12 62 25 28 14 66 25 85 24 31 0 32 -1 13 -9z m-5406
-7 c-20 -2 -52 -2 -70 0 -17 2 0 4 38 4 39 0 53 -2 32 -4z m7373 -101 c0 -15
11 -68 25 -117 14 -50 25 -99 25 -110 0 -18 -45 -35 -392 -143 -216 -68 -634
-199 -928 -291 l-535 -168 -8 51 c-4 28 -6 69 -5 91 3 39 6 41 73 77 96 50
374 164 620 253 50 18 198 72 330 120 132 48 317 114 410 146 94 32 215 74
269 93 55 19 103 33 108 30 4 -3 8 -17 8 -32z m-7643 22 c-3 -3 -12 -4 -19 -1
-8 3 -5 6 6 6 11 1 17 -2 13 -5z m-1987 -150 c0 -2 -9 0 -20 6 -11 6 -20 13
-20 16 0 2 9 0 20 -6 11 -6 20 -13 20 -16z m3260 7 c0 -4 -7 -17 -16 -29 l-15
-22 -735 0 c-404 0 -734 2 -734 4 0 3 4 16 10 30 l9 25 741 0 c407 -1 740 -4
740 -8z m-2862 -160 c235 -52 441 -92 699 -136 117 -19 224 -40 238 -45 32
-12 601 1 1340 30 132 5 273 12 313 15 79 6 89 -2 44 -34 -25 -18 -54 -21
-253 -31 -396 -18 -1018 -39 -1229 -41 -203 -1 -207 -1 -460 45 -529 96 -847
168 -872 198 -20 23 -23 38 -8 38 6 0 90 -18 188 -39z m-46 -151 c133 -51 430
-122 768 -182 l185 -33 330 1 c325 0 563 11 883 40 179 16 220 16 152 3 -213
-43 -592 -69 -1017 -69 -327 0 -446 15 -861 106 -333 73 -517 137 -569 197
-12 14 -6 12 19 -7 21 -15 70 -41 110 -56z m2780 53 c-46 -64 -164 -163 -195
-163 -5 0 18 18 52 41 34 23 83 65 108 95 51 59 66 70 35 27z m-3370 -276 c59
-26 133 -54 165 -63 55 -15 91 -34 66 -34 -55 0 -423 158 -423 181 0 6 19 0
43 -14 23 -14 90 -45 149 -70z m11529 49 c2 -24 1 -42 -3 -39 -5 2 -13 1 -19
-3 -8 -4 -7 -9 2 -15 7 -4 10 -11 6 -16 -22 -21 -36 62 -17 98 17 31 28 22 31
-25z m-800 7 c-5 -10 -12 -26 -15 -35 -6 -19 29 -8 -946 -308 -683 -211 -1411
-441 -1685 -533 -213 -72 -262 -84 -283 -70 -41 26 -15 38 288 130 833 256
1172 361 1465 453 309 98 957 306 1100 355 86 29 87 29 76 8z m-2698 -172 l2
-65 -63 -19 c-74 -22 -109 -17 -118 18 -9 35 14 65 93 125 66 50 67 50 76 28
4 -12 9 -51 10 -87z m-8195 87 c-2 -6 8 -17 20 -24 13 -6 29 -17 35 -23 6 -6
16 -11 22 -11 5 0 2 5 -7 11 -10 5 -18 17 -18 25 0 12 6 11 38 -4 20 -11 42
-17 48 -15 6 2 17 -3 24 -12 16 -19 50 -20 50 0 0 8 8 15 17 15 13 0 14 -3 5
-12 -9 -9 -8 -16 5 -30 20 -23 40 -23 46 0 2 9 3 1 1 -18 -2 -30 2 -38 28 -53
57 -33 21 -28 -83 11 -160 60 -249 109 -249 138 0 8 5 14 10 14 6 0 9 -5 8
-12z m7169 -129 c171 -83 311 -365 340 -683 10 -116 16 -106 -104 -178 -60
-37 -92 -49 -138 -54 -67 -8 -185 -54 -200 -78 -7 -12 -6 -19 5 -26 13 -8 12
-11 -5 -24 -17 -12 -18 -16 -5 -42 l14 -29 4 25 c2 13 10 33 18 44 12 17 13
15 7 -20 -3 -21 -7 -41 -9 -43 -2 -2 4 -18 12 -35 21 -41 174 -189 179 -173
12 32 36 201 42 288 3 54 9 102 13 108 3 6 45 30 93 54 l87 43 0 -117 c0 -148
-21 -312 -59 -454 -48 -181 -59 -197 -88 -127 -23 56 -93 172 -103 172 -5 0
-16 -12 -23 -26 l-14 -27 -51 84 c-28 46 -72 113 -98 148 -41 57 -48 62 -57
46 -8 -15 6 -50 72 -179 45 -89 82 -168 81 -177 0 -9 -9 -24 -19 -33 -24 -22
-27 -17 -57 92 -31 114 -103 265 -122 257 -7 -3 -18 -5 -23 -5 -5 0 -9 -7 -9
-15 0 -8 5 -15 12 -15 6 0 4 -8 -6 -19 -10 -11 -16 -31 -14 -48 l3 -28 28 27
c15 15 27 23 27 18 0 -5 -16 -22 -35 -37 l-35 -29 -6 -130 c-7 -144 -12 -164
-36 -141 -14 14 -23 -3 -85 -166 -47 -122 -75 -183 -86 -185 -31 -6 -106 86
-157 192 -235 485 -142 1292 187 1638 137 143 274 178 420 107z m-3206 -301
c39 -54 99 -133 135 -176 35 -42 64 -80 64 -85 0 -4 5 -5 10 -2 6 3 10 1 10
-4 0 -6 6 -11 13 -11 7 0 22 -8 33 -18 11 -10 31 -17 44 -16 14 1 131 5 260 9
439 11 922 51 967 81 13 8 29 26 35 40 11 23 28 33 28 15 0 -5 19 -13 43 -19
44 -12 69 -28 156 -102 122 -104 99 -127 -174 -170 -315 -50 -543 -65 -1187
-77 -280 -5 -363 -3 -387 7 -20 8 -59 48 -103 104 -39 50 -94 115 -121 145
l-50 53 6 158 c4 87 11 170 17 184 5 14 22 34 38 43 19 12 26 25 24 38 -2 11
13 -7 33 -39 20 -33 67 -104 106 -158z m1379 194 c0 -8 -85 -17 -380 -42 -58
-5 -240 -14 -405 -19 -165 -6 -381 -14 -480 -17 -99 -4 -177 -4 -174 0 3 3
158 13 345 21 366 16 824 42 969 54 50 5 98 9 108 10 9 0 17 -3 17 -7z m-160
-64 c-1 -62 -7 -68 -81 -68 -38 0 -69 3 -69 8 0 4 7 16 15 26 21 28 19 36 -12
37 -40 2 37 16 100 18 43 1 47 -1 47 -21z m-204 -4 c-3 -9 -6 -22 -6 -30 0 -9
-5 -12 -12 -8 -8 5 -9 0 -6 -14 4 -12 5 -22 5 -22 -31 -4 -482 -30 -529 -30
l-67 0 27 27 27 28 -64 8 c-43 6 -59 12 -50 18 20 12 206 11 214 -1 4 -6 10
-8 15 -5 16 10 20 -13 5 -28 -21 -22 -19 -27 14 -27 20 0 36 9 51 28 l22 27
-29 5 c-49 9 0 20 93 20 l85 0 -16 -30 c-20 -39 -20 -40 18 -40 26 0 36 6 45
25 16 34 15 35 -8 35 -11 0 -20 4 -20 10 0 5 37 11 83 13 45 1 88 4 96 5 8 1
11 -4 7 -14z m5604 -3 c0 -64 67 -323 115 -442 5 -14 -10 -18 -117 -28 -178
-16 -643 -57 -858 -76 -183 -15 -310 -27 -505 -46 -55 -5 -158 -14 -230 -19
-71 -6 -170 -14 -220 -19 -49 -6 -170 -17 -268 -26 -99 -8 -191 -17 -205 -20
-69 -13 299 104 978 309 843 254 1279 384 1298 385 6 1 12 -8 12 -18z m-10250
-70 c-11 -43 -26 -53 -32 -23 -4 20 36 98 40 78 2 -8 -2 -33 -8 -55z m3947 43
c-3 -3 -12 -4 -19 -1 -8 3 -5 6 6 6 11 1 17 -2 13 -5z m-59 -31 c32 -70 3 -66
369 -49 410 20 622 34 634 42 5 3 9 1 9 -5 0 -12 -58 -18 -285 -31 -710 -40
-927 -48 -875 -30 14 5 56 11 93 15 85 8 85 24 2 57 l-30 11 30 7 c17 4 32 8
35 9 3 0 11 -11 18 -26z m-3378 -48 c832 -94 1082 -112 2410 -175 269 -13 393
-26 429 -44 14 -8 49 -38 76 -68 78 -82 420 -517 420 -533 0 -8 41 -56 90
-107 l90 -91 -67 46 c-37 26 -70 47 -73 47 -4 0 -19 9 -34 19 -95 68 -184 90
-368 91 l-61 0 -64 78 c-113 136 -182 226 -167 217 19 -12 -81 103 -123 140
l-33 30 33 -36 c20 -22 30 -39 23 -43 -5 -4 -7 -14 -4 -24 6 -18 77 -117 100
-141 13 -12 78 -107 98 -141 5 -8 -20 11 -55 43 -36 31 -89 69 -118 84 -58 28
41 21 -1264 86 -125 6 -138 -1 -120 -70 7 -26 30 -78 52 -116 l39 -67 -142 6
c-162 8 -143 -4 -214 129 -59 109 -84 141 -126 154 -33 11 -202 34 -522 71
-99 12 -238 30 -310 41 -71 11 -139 18 -151 15 -25 -7 -51 -62 -60 -127 -7
-58 10 -95 68 -142 51 -40 74 -54 65 -40 -4 6 42 0 101 -13 142 -30 487 -84
802 -126 140 -18 244 -34 231 -36 -54 -8 -830 102 -1012 144 -39 9 -73 14 -75
11 -3 -3 19 -11 49 -17 l54 -13 -2 -39 c-3 -46 -29 -78 -63 -78 -61 0 -323
189 -374 269 -28 44 -30 46 -111 63 -118 25 -130 31 -115 63 6 13 19 27 30 30
10 4 18 11 18 16 0 5 11 9 24 9 14 0 28 5 31 11 4 6 26 8 56 5 l50 -6 19 45
c17 40 18 47 5 72 -16 29 -19 143 -6 198 6 24 3 35 -18 58 -22 24 -23 29 -11
37 8 6 33 8 55 5 22 -3 177 -21 345 -40z m11050 -50 c10 -12 10 -21 1 -41 -13
-30 -26 -25 -34 13 -3 16 -9 36 -13 47 -6 16 -4 17 13 8 11 -6 26 -18 33 -27z
m-122 -37 c11 -43 8 -59 -7 -42 -13 14 -23 84 -13 84 5 0 14 -19 20 -42z
m-9253 -803 c222 -15 588 -32 975 -45 l255 -9 -315 5 c-173 2 -405 8 -515 14
-491 24 -655 39 -655 60 0 6 12 5 28 -1 15 -6 117 -17 227 -24z m299 -256 c93
-11 171 -20 172 -22 2 -2 -95 -13 -214 -26 -119 -12 -237 -25 -261 -28 l-44
-6 32 47 c18 26 42 51 52 55 22 8 24 8 263 -20z m4510 -254 c19 -14 19 -16 3
-51 -10 -19 -23 -34 -29 -32 -11 4 -46 88 -47 116 -1 13 34 -2 73 -33z m-204
-83 c0 -17 -5 -23 -17 -20 -19 3 -29 47 -18 76 5 14 9 13 20 -8 8 -14 14 -35
15 -48z m95 -104 c16 -14 -75 -97 -144 -131 -144 -70 -316 -32 -257 57 20 32
74 40 101 16 32 -29 54 -28 73 3 16 27 16 29 -1 42 -18 13 -18 13 1 19 34 11
72 53 65 72 -4 11 18 3 73 -27 43 -23 83 -46 89 -51z m-280 -11 c16 -13 15
-14 -13 -9 -18 2 -29 8 -26 13 7 12 17 11 39 -4z"/>
<path d="M9140 7711 c0 -5 5 -13 10 -16 6 -3 10 -2 10 4 0 5 -4 13 -10 16 -5
3 -10 2 -10 -4z"/>
<path d="M9290 7585 c-10 -12 -10 -15 4 -15 9 0 16 7 16 15 0 8 -2 15 -4 15
-2 0 -9 -7 -16 -15z"/>
<path d="M8686 6953 c-11 -10 -15 -12 -11 -4 5 9 4 12 -3 7 -19 -12 -14 -23
12 -28 16 -3 27 0 30 9 14 36 1 43 -28 16z"/>
<path d="M8686 6898 c3 -4 9 -8 15 -8 5 0 9 4 9 8 0 5 -7 9 -15 9 -8 0 -12 -4
-9 -9z"/>
<path d="M8815 6871 c-3 -5 -2 -12 3 -15 5 -3 9 1 9 9 0 17 -3 19 -12 6z"/>
<path d="M10588 6513 c7 -3 16 -2 19 1 4 3 -2 6 -13 5 -11 0 -14 -3 -6 -6z"/>
<path d="M10548 6503 c7 -3 16 -2 19 1 4 3 -2 6 -13 5 -11 0 -14 -3 -6 -6z"/>
<path d="M10388 6473 c7 -3 16 -2 19 1 4 3 -2 6 -13 5 -11 0 -14 -3 -6 -6z"/>
<path d="M11610 6391 c0 -5 5 -13 10 -16 6 -3 10 -2 10 4 0 5 -4 13 -10 16 -5
3 -10 2 -10 -4z"/>
<path d="M11473 6360 c-3 -11 -12 -20 -19 -20 -8 0 -17 -7 -20 -15 -4 -8 -14
-15 -23 -15 -14 1 -13 3 3 15 11 8 16 18 13 22 -4 3 -7 3 -7 -2 0 -4 -8 -1
-17 6 -15 11 -16 11 -6 0 9 -11 7 -18 -13 -33 -26 -21 -24 -35 10 -48 15 -6
27 -2 43 13 12 11 20 24 17 29 -3 5 0 7 7 6 7 -2 15 11 19 30 8 34 2 45 -7 12z"/>
<path d="M11510 6355 c-14 -8 -20 -14 -14 -15 5 0 19 7 30 15 24 18 16 19 -16
0z"/>
<path d="M11540 6345 c-68 -35 -126 -98 -146 -157 -19 -59 -14 -120 13 -150
16 -18 26 -20 83 -15 131 12 190 49 190 122 0 21 -3 24 -17 17 -10 -6 -38 -13
-63 -17 l-45 -7 52 38 c28 21 49 42 47 46 -3 5 2 8 10 8 12 0 14 7 9 33 -7 40
-21 67 -33 67 -6 0 -10 6 -10 14 0 13 -21 27 -38 26 -4 -1 -27 -12 -52 -25z"/>
<path d="M11297 6343 c-4 -3 -7 -11 -7 -17 0 -6 5 -5 12 2 6 6 9 14 7 17 -3 3
-9 2 -12 -2z"/>
<path d="M11347 6343 c-3 -3 -3 -12 0 -20 5 -12 1 -14 -15 -9 -12 4 -23 2 -28
-5 -4 -8 -3 -9 4 -5 15 9 15 1 0 -23 -9 -15 -20 -18 -47 -14 -26 3 -32 2 -22
-5 8 -6 20 -8 28 -5 7 3 13 0 13 -6 0 -6 7 -8 17 -4 10 4 14 2 10 -4 -4 -6 7
-10 26 -9 l32 0 -27 10 c-38 13 -36 27 2 16 18 -5 30 -5 30 1 0 5 -5 9 -11 9
-5 0 -7 5 -3 12 5 8 1 9 -12 4 -14 -5 -12 0 9 19 15 14 27 27 27 29 0 7 -28
15 -33 9z"/>
<path d="M11210 6310 c0 -5 5 -10 11 -10 5 0 7 5 4 10 -3 6 -8 10 -11 10 -2 0
-4 -4 -4 -10z"/>
<path d="M11155 6270 c4 -6 11 -8 16 -5 14 9 11 15 -7 15 -8 0 -12 -5 -9 -10z"/>
<path d="M11375 6249 c-4 -6 -5 -12 -2 -15 7 -7 37 7 37 17 0 13 -27 11 -35
-2z"/>
<path d="M3595 6180 c-19 -8 -19 -9 3 -9 12 -1 22 4 22 9 0 6 -1 10 -2 9 -2 0
-12 -4 -23 -9z"/>
<path d="M4045 5980 c-3 -5 -1 -10 4 -10 6 0 11 5 11 10 0 6 -2 10 -4 10 -3 0
-8 -4 -11 -10z"/>
<path d="M4078 5983 c7 -3 16 -2 19 1 4 3 -2 6 -13 5 -11 0 -14 -3 -6 -6z"/>
<path d="M10140 6086 c0 -2 7 -7 16 -10 8 -3 12 -2 9 4 -6 10 -25 14 -25 6z"/>
<path d="M10052 6054 c-152 -75 -234 -219 -188 -329 24 -56 68 -58 219 -8 97
31 126 55 137 111 8 48 -10 175 -31 213 -12 23 -13 23 -17 4 -6 -38 -25 -65
-45 -65 -18 0 -19 2 -5 18 23 26 30 53 17 68 -16 19 -28 18 -87 -12z m152
-150 c10 -25 -21 -52 -77 -69 -69 -21 -90 -18 -42 4 22 10 53 33 69 50 34 35
41 38 50 15z"/>
<path d="M9430 5949 c0 -5 5 -7 10 -4 6 3 10 8 10 11 0 2 -4 4 -10 4 -5 0 -10
-5 -10 -11z"/>
<path d="M6030 5186 c0 -2 9 -6 20 -9 11 -3 20 -1 20 4 0 5 -9 9 -20 9 -11 0
-20 -2 -20 -4z"/>
<path d="M5910 5119 c-52 -10 -107 -23 -121 -29 -14 -6 -35 -12 -47 -13 -27
-2 -27 -4 1 -27 l22 -19 -25 -10 c-21 -8 -22 -10 -5 -10 24 -1 47 13 45 25 -4
24 180 84 255 84 17 0 75 -16 129 -34 62 -22 105 -32 115 -27 20 12 -5 24
-114 56 -102 29 -128 30 -255 4z"/>
<path d="M6340 5065 c-10 -12 -10 -15 0 -15 15 0 -39 -96 -99 -175 -106 -140
-246 -259 -391 -333 -36 -18 -54 -30 -40 -26 42 11 142 64 206 109 70 50 190
175 260 270 26 35 50 63 52 60 3 -2 -1 -11 -8 -20 -7 -9 -10 -18 -7 -21 8 -8
29 35 22 46 -3 5 6 32 20 59 14 28 25 53 25 56 0 11 -28 4 -40 -10z"/>
<path d="M5625 5055 c-27 -7 -68 -16 -90 -21 -26 -5 -33 -9 -21 -12 23 -5 176
30 176 41 0 9 -3 8 -65 -8z"/>
<path d="M6237 5016 c-67 -38 -82 -52 -47 -41 14 4 27 12 28 16 2 5 8 7 13 3
5 -3 9 0 9 6 0 6 3 9 8 7 4 -2 18 6 32 19 32 31 27 30 -43 -10z"/>
<path d="M5445 5013 c-53 -6 -180 -35 -195 -44 -12 -6 -10 -8 8 -9 13 0 21 -4
18 -9 -3 -4 4 -17 15 -27 11 -10 17 -24 15 -31 -3 -7 1 -13 10 -13 10 0 14 -6
10 -15 -3 -10 1 -15 14 -15 10 0 22 -9 25 -20 9 -27 25 -16 25 17 0 30 40 105
78 146 14 15 22 26 16 26 -5 -1 -22 -4 -39 -6z"/>
<path d="M5504 4995 c3 -8 0 -15 -7 -15 -16 0 -67 -47 -68 -63 -1 -7 -1 -16 1
-22 1 -5 4 -34 7 -64 3 -30 11 -73 19 -94 8 -22 12 -42 9 -45 -3 -3 -5 -1 -5
4 0 5 -9 20 -20 34 l-20 25 0 -29 c0 -21 11 -39 39 -66 51 -48 80 -55 148 -34
41 13 57 14 65 6 7 -7 32 -12 56 -12 40 0 48 5 88 48 45 49 60 91 27 76 -10
-4 -39 -9 -65 -12 -43 -3 -48 -2 -48 16 0 12 9 23 20 27 32 10 13 24 -24 18
-32 -5 -34 -4 -41 33 -10 58 -42 113 -68 118 -12 3 -31 7 -42 9 -16 4 -15 5 5
6 21 1 17 6 -25 26 -59 29 -59 29 -51 10z m22 -298 l29 -32 -29 25 c-33 29
-56 78 -55 117 0 19 5 11 14 -25 7 -31 25 -67 41 -85z m24 98 c0 -7 3 -20 6
-29 3 -9 1 -16 -5 -16 -6 0 -11 6 -11 14 0 8 -7 16 -15 20 -10 3 -15 -1 -15
-12 0 -15 -2 -15 -10 -2 -20 30 -12 47 20 42 17 -2 30 -10 30 -17z m170 -35
c0 -5 -5 -10 -11 -10 -5 0 -7 5 -4 10 3 6 8 10 11 10 2 0 4 -4 4 -10z m-11
-88 c-12 -35 -20 -38 -50 -21 -20 10 -20 11 3 28 22 17 50 30 56 26 1 -1 -3
-16 -9 -33z m41 5 c0 -2 -10 -12 -21 -23 -22 -19 -22 -19 -8 4 12 19 29 30 29
19z"/>
<path d="M6100 4925 c-7 -9 -11 -18 -8 -20 3 -3 11 1 18 10 7 9 11 18 8 20 -3
3 -11 -1 -18 -10z"/>
<path d="M6025 4905 c-69 -51 -86 -70 -81 -91 4 -15 -3 -29 -26 -50 -46 -43
-179 -224 -165 -224 2 0 19 21 37 48 63 88 152 186 243 270 68 61 58 62 -20 1
-67 -52 -59 -31 12 33 32 29 32 36 0 13z"/>
<path d="M4855 4900 c-8 -13 5 -13 25 0 13 8 13 10 -2 10 -9 0 -20 -4 -23 -10z"/>
<path d="M4965 4900 c-3 -5 -2 -10 4 -10 5 0 13 5 16 10 3 6 2 10 -4 10 -5 0
-13 -4 -16 -10z"/>
<path d="M5045 4902 c-11 -2 -26 -9 -33 -15 -10 -8 -6 -13 19 -24 42 -18 45
-17 23 9 -14 17 -15 19 -2 9 9 -7 29 -14 44 -16 36 -4 59 -38 32 -48 -7 -2 -4
-2 7 0 11 2 43 6 70 10 43 5 48 4 38 -8 -17 -21 -1 -43 26 -34 33 10 28 23
-24 60 -20 14 -20 14 3 15 12 0 22 4 22 10 0 14 -63 0 -73 -17 -11 -19 -35
-16 -46 5 -12 22 -78 49 -106 44z"/>
<path d="M5688 4893 c7 -3 16 -2 19 1 4 3 -2 6 -13 5 -11 0 -14 -3 -6 -6z"/>
<path d="M4902 4868 c-44 -56 -57 -139 -36 -239 19 -97 44 -122 114 -115 40 4
103 25 77 26 -4 0 0 12 10 27 13 19 14 28 5 31 -9 3 -8 7 2 18 8 8 17 14 21
14 3 0 16 10 28 23 12 13 16 16 10 7 -19 -25 -16 -31 12 -20 21 8 25 6 26 -8
0 -15 1 -15 8 2 5 13 19 19 45 21 21 1 41 8 46 14 4 7 16 11 26 10 24 -4 44 8
44 27 0 12 -4 12 -20 4 -17 -9 -20 -8 -20 8 0 30 -29 47 -81 47 -37 0 -45 -3
-37 -12 6 -7 22 -13 36 -13 25 0 25 0 6 -21 -16 -18 -20 -19 -30 -5 -14 20
-28 21 -21 3 4 -10 -2 -13 -19 -9 -14 2 -24 0 -24 -7 0 -6 -9 -11 -21 -11 -11
0 -29 -5 -40 -11 -16 -8 -24 -5 -46 20 -14 16 -32 43 -39 60 -15 35 -11 40 51
58 l40 11 -57 1 c-48 1 -58 -2 -63 -19 -4 -11 -10 -18 -15 -15 -14 9 -9 -77 5
-91 7 -7 26 -16 41 -20 62 -15 73 -44 17 -44 -32 1 -41 6 -60 36 -13 20 -23
48 -23 64 0 38 -16 47 -23 12 -4 -18 1 -36 14 -54 20 -29 26 -53 9 -43 -5 3
-7 0 -4 -8 3 -8 1 -18 -4 -21 -6 -3 -17 12 -26 35 -19 46 -10 133 19 188 16
32 15 40 -3 19z"/>
<path d="M5310 4831 c0 -5 5 -13 10 -16 6 -3 10 -2 10 4 0 5 -4 13 -10 16 -5
3 -10 2 -10 -4z"/>
<path d="M6034 4816 c-18 -14 -18 -15 -1 -21 9 -4 24 -2 32 5 33 28 5 42 -31
16z"/>
<path d="M5020 4750 c0 -5 15 -10 34 -10 21 0 36 -6 40 -15 9 -24 26 -17 26
10 0 23 -3 25 -50 25 -27 0 -50 -4 -50 -10z"/>
<path d="M5380 4720 c0 -16 -5 -30 -11 -30 -5 0 -7 -4 -4 -10 6 -9 55 -15 55
-6 0 9 -31 76 -35 76 -3 0 -5 -13 -5 -30z"/>
<path d="M4618 4734 c-5 -4 -8 -16 -8 -28 0 -14 3 -17 11 -9 6 6 9 19 7 28 -1
9 -6 13 -10 9z"/>
<path d="M4560 4650 c0 -5 5 -10 11 -10 5 0 7 5 4 10 -3 6 -8 10 -11 10 -2 0
-4 -4 -4 -10z"/>
<path d="M5102 4618 c-14 -14 -16 -28 -3 -28 5 0 11 9 14 20 6 23 5 24 -11 8z"/>
<path d="M5420 4622 c-35 -4 -98 -34 -83 -39 22 -8 127 29 113 39 -3 2 -16 2
-30 0z"/>
<path d="M5125 4610 c-3 -5 -2 -10 4 -10 5 0 13 5 16 10 3 6 2 10 -4 10 -5 0
-13 -4 -16 -10z"/>
<path d="M5705 4600 c-22 -4 -53 -13 -70 -19 -16 -7 -48 -13 -70 -13 -21 1
-34 -2 -28 -6 6 -4 -10 -7 -35 -7 -74 -1 -194 -25 -189 -38 2 -7 14 -11 25 -9
13 2 22 -2 22 -10 1 -9 5 -7 14 5 12 15 15 16 26 2 10 -12 15 -13 21 -4 6 10
11 10 24 -1 13 -11 15 -11 13 0 -2 7 3 15 10 17 6 3 12 0 12 -6 0 -6 5 -11 11
-11 5 0 7 5 4 10 -4 7 3 8 21 4 19 -5 25 -4 20 5 -4 6 -2 11 3 11 6 0 11 -5
11 -12 0 -6 7 -3 15 8 8 11 15 14 15 7 0 -7 5 -13 11 -13 6 0 9 7 6 15 -4 10
5 17 30 24 48 14 54 6 12 -13 -19 -9 -24 -13 -11 -10 23 6 31 -10 10 -20 -7
-3 0 -4 16 -3 16 1 31 8 34 15 2 8 -2 10 -15 5 -10 -3 -15 -3 -11 1 11 13 43
14 50 2 5 -7 8 -5 8 6 0 9 6 19 13 21 7 3 3 6 -8 7 -14 2 -11 4 9 9 16 3 31
12 34 19 4 13 -2 13 -63 2z"/>
<path d="M5190 4555 c-19 -7 -45 -14 -57 -14 -13 -1 -23 -5 -23 -10 0 -9 146
22 157 33 11 11 -41 5 -77 -9z"/>
<path d="M5732 4518 c-15 -15 -15 -28 0 -28 6 0 8 3 5 7 -4 3 -2 12 4 20 14
16 7 17 -9 1z"/>
<path d="M5268 4513 c7 -3 16 -2 19 1 4 3 -2 6 -13 5 -11 0 -14 -3 -6 -6z"/>
<path d="M5198 4503 c6 -2 18 -2 25 0 6 3 1 5 -13 5 -14 0 -19 -2 -12 -5z"/>
<path d="M5663 4502 c-13 -2 -23 -8 -23 -13 0 -6 6 -7 13 -4 6 4 3 -1 -8 -10
-19 -17 -19 -17 10 -10 36 8 38 10 33 27 -2 7 -13 12 -25 10z"/>
<path d="M4895 4489 c-10 -14 -1 -21 19 -13 9 3 13 10 10 15 -7 12 -21 11 -29
-2z"/>
<path d="M5050 4479 c0 -4 11 -9 25 -11 17 -4 25 -1 25 8 0 9 -10 13 -25 12
-14 -1 -25 -5 -25 -9z"/>
<path d="M5008 4473 c7 -3 16 -2 19 1 4 3 -2 6 -13 5 -11 0 -14 -3 -6 -6z"/>
<path d="M11300 5039 c-22 -18 -22 -19 -3 -10 12 6 25 16 28 21 9 15 3 12 -25
-11z"/>
<path d="M2005 4826 c-52 -24 -135 -104 -135 -131 0 -8 -4 -15 -8 -15 -19 0
-34 -59 -38 -154 -3 -55 -10 -106 -16 -113 -7 -9 -7 -13 1 -13 6 0 11 -7 11
-16 0 -20 -1 -21 111 63 70 53 98 80 103 100 15 68 90 293 98 293 11 0 10 -13
-7 -165 -8 -71 -15 -135 -15 -142 0 -17 171 -224 180 -218 5 3 19 31 31 63 18
45 23 77 23 157 1 94 -1 105 -32 167 -33 68 -82 117 -136 138 -46 17 -117 12
-171 -14z"/>
<path d="M1959 4452 c-131 -93 -133 -95 -120 -132 29 -85 104 -148 190 -160
85 -12 124 3 196 73 l60 58 -45 27 c-78 47 -205 132 -197 132 4 0 36 -18 70
-41 l62 -40 -60 56 c-33 30 -67 60 -75 64 -11 7 -34 -4 -81 -37z"/>
<path d="M11914 4643 c12 -87 19 -309 11 -339 l-8 -29 -8 30 c-52 195 -69 281
-60 307 5 15 6 30 2 32 -10 7 -73 -77 -104 -139 -29 -59 -77 -207 -77 -239 0
-16 19 -38 65 -75 l66 -52 13 33 c7 18 18 47 24 63 l10 30 1 -29 c1 -16 11
-50 23 -74 19 -41 20 -45 5 -54 -21 -11 -22 -58 -2 -84 14 -19 15 -19 21 4 3
12 10 22 15 22 5 0 9 24 9 53 1 28 7 81 15 117 20 91 10 470 -13 470 -12 0
-13 -9 -8 -47z"/>
<path d="M11998 4508 c-2 -107 -8 -181 -15 -194 -7 -11 -15 -43 -19 -71 -5
-42 -3 -51 11 -57 25 -9 95 43 95 72 0 13 7 36 15 52 15 29 15 64 0 120 -6 24
-5 23 25 -8 24 -27 37 -32 56 -28 13 4 24 11 24 17 0 6 -14 44 -31 85 -31 75
-117 184 -144 184 -10 0 -14 -39 -17 -172z"/>
<path d="M11951 4164 c0 -11 3 -14 6 -6 3 7 2 16 -1 19 -3 4 -6 -2 -5 -13z"/>
<path d="M11950 4116 c0 -9 5 -16 10 -16 6 0 10 4 10 9 0 6 -4 13 -10 16 -5 3
-10 -1 -10 -9z"/>
<path d="M11640 4096 c0 -13 -3 -32 -6 -40 -5 -12 8 -22 51 -42 40 -17 60 -22
65 -14 10 16 90 -18 91 -39 0 -10 2 -11 6 -3 2 6 13 12 24 12 28 0 23 15 -13
45 -18 15 -27 24 -19 19 9 -5 12 -3 7 5 -4 6 -11 9 -16 6 -5 -3 -45 12 -89 35
-44 22 -85 40 -91 40 -5 0 -10 -11 -10 -24z"/>
<path d="M11870 3653 c-6 -38 -31 -133 -56 -213 -38 -125 -42 -146 -30 -159
13 -12 18 -2 41 72 14 47 32 116 40 154 16 77 31 213 22 213 -3 0 -10 -30 -17
-67z"/>
<path d="M7224 3735 c-3 -8 -1 -74 5 -146 6 -73 11 -173 11 -223 0 -78 -3 -93
-19 -103 -16 -10 -20 -7 -34 25 -9 20 -21 62 -27 92 -7 30 -23 93 -37 140 -22
74 -23 88 -12 122 7 21 9 41 6 45 -20 20 -153 -127 -215 -237 -45 -80 -111
-238 -112 -266 0 -16 27 -39 111 -94 124 -82 111 -83 160 15 17 33 28 49 25
36 -3 -17 3 -34 21 -55 24 -28 59 -96 51 -100 -49 -22 -59 -56 -33 -106 20
-38 49 -37 53 3 3 28 22 39 22 12 0 -8 6 -12 13 -10 8 4 11 26 9 76 -3 57 2
88 24 157 28 85 29 91 24 257 -3 94 -5 216 -4 273 0 93 -1 102 -18 102 -10 0
-21 -7 -24 -15z m-74 -804 c0 -6 -4 -13 -10 -16 -5 -3 -10 1 -10 9 0 9 5 16
10 16 6 0 10 -4 10 -9z"/>
<path d="M7367 3733 c-4 -3 -7 -89 -7 -190 0 -177 -10 -266 -33 -280 -6 -3 -7
-1 -3 5 4 7 1 12 -7 12 -10 0 -17 -17 -21 -57 -4 -32 -16 -116 -28 -188 -11
-71 -21 -136 -21 -142 0 -7 -6 -13 -13 -13 -23 0 -63 -60 -69 -104 l-7 -44
-51 14 c-60 16 -78 17 -58 5 10 -7 1 -15 -35 -31 -45 -20 -59 -21 -178 -16
l-129 7 6 -153 c6 -157 20 -243 57 -368 20 -69 52 -116 69 -106 8 5 158 214
174 242 4 7 -2 22 -12 35 -13 17 -20 50 -25 115 l-7 90 40 19 c23 10 41 23 41
28 0 6 9 2 19 -7 30 -27 63 -17 74 23 8 33 9 33 23 13 11 -16 12 -27 4 -48
-13 -32 -6 -44 9 -16 6 11 7 23 3 27 -4 4 5 1 19 -5 57 -26 99 37 107 158 5
75 13 92 37 72 28 -23 218 96 322 202 l61 63 -54 -1 c-46 -1 -59 -7 -92 -35
-20 -19 -67 -56 -104 -83 -38 -28 -68 -55 -68 -61 0 -6 -12 -28 -26 -49 -20
-29 -28 -35 -35 -25 -5 9 1 24 19 43 27 29 27 29 -16 -3 -36 -28 -45 -31 -58
-20 -14 12 -14 14 5 21 22 8 31 58 10 58 -6 0 -9 6 -6 14 3 7 -1 26 -9 41 -9
18 -12 40 -8 61 5 30 9 33 31 28 18 -5 46 3 94 27 68 34 79 47 79 97 0 13 11
39 25 60 22 33 23 38 9 53 -9 10 -11 18 -5 20 8 3 7 14 -1 36 -17 45 -4 51 36
15 22 -19 31 -33 23 -36 -7 -3 15 -3 48 1 33 3 62 7 64 9 9 8 -55 139 -100
203 -53 75 -115 132 -172 156 -42 17 -41 17 -50 8z m-77 -778 c-7 -8 -16 -15
-21 -15 -5 0 -6 7 -3 15 4 8 13 15 21 15 13 0 13 -3 3 -15z m-27 -163 c-4 -21
-2 -24 6 -12 12 17 14 6 5 -28 -4 -13 -12 -21 -19 -18 -7 2 -21 -2 -32 -10
-11 -8 -12 -13 -4 -12 7 2 16 -3 18 -9 3 -8 -4 -13 -15 -13 -35 0 -42 47 -17
108 11 26 18 33 24 23 6 -10 10 -9 15 5 10 26 24 0 19 -34z m-153 -121 c0 -6
-4 -13 -10 -16 -5 -3 -10 1 -10 9 0 9 5 16 10 16 6 0 10 -4 10 -9z"/>
<path d="M7684 3162 l-41 -47 51 5 c40 4 51 9 50 23 -2 54 -5 67 -11 67 -5 -1
-27 -22 -49 -48z"/>
<path d="M6740 2974 c-6 -14 -10 -41 -10 -59 0 -37 -4 -35 182 -91 14 -4 16
-1 11 12 -5 13 -2 15 13 11 10 -3 45 -13 76 -22 39 -11 59 -22 63 -36 7 -23
25 -26 25 -4 0 11 7 14 25 9 46 -11 41 21 -12 73 -27 26 -56 59 -65 73 l-17
25 0 -26 c-1 -14 5 -31 12 -38 10 -12 8 -13 -8 -6 -11 4 -31 11 -45 15 -14 4
-72 26 -129 49 -58 23 -106 41 -108 41 -2 0 -8 -12 -13 -26z"/>
<path d="M7140 2468 c-5 -13 -19 -60 -30 -106 -19 -78 -109 -306 -117 -298 -2
2 1 16 7 31 9 23 8 26 -5 22 -8 -4 -18 1 -23 10 -8 14 -10 14 -15 -1 -4 -9 -2
-16 4 -16 6 0 7 -5 4 -10 -4 -6 -11 -8 -16 -5 -5 3 -6 -2 -2 -11 4 -11 2 -15
-4 -11 -6 4 -14 0 -17 -9 -3 -8 -2 -12 4 -9 6 3 10 -3 10 -14 0 -12 5 -21 11
-21 5 0 7 5 3 12 -5 7 -3 8 6 3 10 -6 8 -12 -9 -27 -18 -14 -20 -18 -7 -18 20
0 20 -17 1 -50 -17 -30 -19 -60 -4 -60 5 0 7 6 4 13 -4 6 3 2 14 -11 l20 -23
14 28 c36 70 119 311 136 395 33 163 38 249 11 186z"/>
<path d="M6976 2163 c-6 -14 -5 -15 5 -6 7 7 10 15 7 18 -3 3 -9 -2 -12 -12z"/>
<path d="M6986 2131 c-4 -5 3 -7 14 -4 23 6 26 13 6 13 -8 0 -17 -4 -20 -9z"/>
<path d="M740 3321 c0 -55 4 -102 8 -105 4 -2 23 29 41 70 l34 75 -34 29 c-19
16 -37 29 -41 30 -5 0 -8 -45 -8 -99z"/>
<path d="M911 3339 c-1 -17 40 -122 45 -116 2 1 -8 32 -21 67 -13 36 -24 58
-24 49z"/>
<path d="M9301 8149 c-106 -10 -249 -35 -284 -50 -21 -9 -21 -9 3 -4 77 16
345 46 475 54 l150 8 -125 0 c-69 0 -167 -4 -219 -8z"/>
<path d="M10163 8143 c9 -2 23 -2 30 0 6 3 -1 5 -18 5 -16 0 -22 -2 -12 -5z"/>
<path d="M8468 8123 c6 -2 18 -2 25 0 6 3 1 5 -13 5 -14 0 -19 -2 -12 -5z"/>
<path d="M8325 8099 c-66 -15 -125 -19 -335 -20 l-255 -2 190 -9 c105 -5 224
-6 265 -3 74 5 289 53 240 53 -14 0 -61 -8 -105 -19z"/>
<path d="M6268 8063 c6 -2 18 -2 25 0 6 3 1 5 -13 5 -14 0 -19 -2 -12 -5z"/>
<path d="M11356 7495 c10 -8 24 -14 29 -14 6 0 1 6 -9 14 -11 8 -24 15 -30 15
-5 0 -1 -7 10 -15z"/>
<path d="M11830 6340 c0 -5 7 -10 16 -10 8 0 12 5 9 10 -3 6 -10 10 -16 10 -5
0 -9 -4 -9 -10z"/>
<path d="M12482 6022 l3 -303 24 6 c13 3 43 15 67 27 l44 20 0 59 c0 32 -3 59
-7 59 -5 0 -15 -15 -24 -33 -9 -17 -30 -40 -46 -50 l-31 -18 5 83 c3 46 11
100 18 121 7 20 9 37 5 37 -21 0 -39 81 -37 166 1 58 -3 96 -11 109 -11 16
-12 -35 -10 -283z"/>
<path d="M11920 5990 c0 -6 -10 -8 -24 -4 -13 3 -27 1 -31 -6 -11 -18 0 -22
36 -13 31 8 53 33 30 33 -6 0 -11 -5 -11 -10z"/>
<path d="M11823 5951 c1 -11 7 -17 14 -14 17 7 17 20 -1 26 -10 4 -14 0 -13
-12z"/>
<path d="M476 4853 c-6 -14 -5 -15 5 -6 7 7 10 15 7 18 -3 3 -9 -2 -12 -12z"/>
<path d="M508 4854 c-13 -20 -22 -118 -10 -110 6 4 14 22 17 40 8 39 3 86 -7
70z"/>
<path d="M560 4636 c0 -2 8 -10 18 -17 15 -13 16 -12 3 4 -13 16 -21 21 -21
13z"/>
<path d="M610 4597 c7 -10 23 -23 34 -29 18 -10 19 -9 9 3 -6 8 -11 18 -11 22
0 5 -4 12 -8 15 -4 4 -4 1 0 -5 4 -7 3 -13 -1 -13 -5 0 -15 6 -23 13 -12 10
-12 9 0 -6z"/>
</g>
</svg>
